<svg width="32" height="31" viewBox="0 0 32 31" fill="none" xmlns="http://www.w3.org/2000/svg">
<g clip-path="url(#clip0_1256_4071)">
<path d="M31.4279 12.0587L31.4282 12.0586L31.4186 11.9792C31.4184 11.9778 31.4183 11.9768 31.4181 11.9754C31.418 11.9743 31.4179 11.9732 31.4177 11.9721L31.3818 11.6733C31.3745 11.6133 31.3663 11.5449 31.3569 11.4669L31.3493 11.4048L31.334 11.4067C30.9558 9.25615 29.9171 7.21526 28.3083 5.47263C26.707 3.73836 24.6266 2.36905 22.292 1.51274C20.2918 0.779052 18.1695 0.406982 15.9842 0.406982C13.034 0.406982 10.1688 1.10084 7.69842 2.41348C2.9347 4.94458 0.125203 9.59696 0.540449 14.2661C0.75539 16.6822 1.70192 18.982 3.27781 20.9172C4.76107 22.7387 6.76757 24.2086 9.08027 25.1679C10.5023 25.7578 11.9083 26.0358 13.397 26.33L13.5712 26.3645C13.9812 26.4457 14.0913 26.5571 14.1198 26.6012C14.1724 26.6832 14.1449 26.8447 14.1238 26.9337C14.1043 27.0157 14.0842 27.0976 14.0642 27.1796C13.9043 27.8314 13.739 28.5055 13.8689 29.2487C14.0182 30.103 14.5517 30.593 15.3326 30.5931H15.3328C16.1728 30.5931 17.1289 30.0296 17.7614 29.6568L17.8459 29.6072C19.3551 28.7208 20.7769 27.7211 21.8469 26.9492C24.1883 25.2598 26.8423 23.345 28.8319 20.8679C30.8355 18.3729 31.7793 15.1669 31.4279 12.0587ZM10.1538 16.7856H7.4794C7.07524 16.7856 6.7476 16.4579 6.7476 16.0538V10.4402C6.7476 10.036 7.07524 9.7084 7.4794 9.7084C7.88357 9.7084 8.21121 10.036 8.21121 10.4402V15.322H10.1537C10.5579 15.322 10.8855 15.6496 10.8855 16.0538C10.8856 16.4579 10.558 16.7856 10.1538 16.7856ZM12.9438 16.0339C12.9438 16.4381 12.6161 16.7657 12.212 16.7657C11.8078 16.7657 11.4802 16.4381 11.4802 16.0339V10.4203C11.4802 10.0162 11.8078 9.68854 12.212 9.68854C12.6161 9.68854 12.9438 10.0162 12.9438 10.4203V16.0339ZM19.5586 16.0339C19.5586 16.351 19.3545 16.632 19.0529 16.7299C18.9784 16.7541 18.9022 16.7658 18.8269 16.7658C18.5971 16.7658 18.375 16.6572 18.2346 16.4639L15.5994 12.8345V16.034C15.5994 16.4382 15.2717 16.7658 14.8676 16.7658C14.4634 16.7658 14.1358 16.4382 14.1358 16.034V10.581C14.1358 10.2639 14.3399 9.98294 14.6416 9.88498C14.9433 9.78713 15.2735 9.89439 15.4598 10.151L18.095 13.7805V10.4203C18.095 10.0162 18.4227 9.68854 18.8268 9.68854C19.231 9.68854 19.5586 10.0162 19.5586 10.4203V16.0339ZM24.8911 16.6505H21.2692C20.865 16.6505 20.5374 16.3229 20.5374 15.9187V13.112V10.3051C20.5374 9.90097 20.865 9.57333 21.2692 9.57333H24.7787C25.1829 9.57333 25.5105 9.90097 25.5105 10.3051C25.5105 10.7093 25.1829 11.0369 24.7787 11.0369H22.001V12.3802H24.2551C24.6593 12.3802 24.9869 12.7079 24.9869 13.112C24.9869 13.5162 24.6593 13.8438 24.2551 13.8438H22.001V15.1869H24.8911C25.2952 15.1869 25.6229 15.5145 25.6229 15.9187C25.6229 16.3229 25.2952 16.6505 24.8911 16.6505Z" fill="white"/>
</g>
<defs>
<clipPath id="clip0_1256_4071">
<rect width="31" height="31" fill="white" transform="translate(0.5)"/>
</clipPath>
</defs>
</svg>
