<style>
  @import url('https://fonts.googleapis.com/css2?family=Source+Code+Pro:ital,wght@0,200..900;1,200..900&display=swap');
  @import url('https://fonts.googleapis.com/css2?family=Rubik:ital,wght@0,300..900;1,300..900&display=swap');
</style>
<svg width="683" height="791" viewBox="0 0 683 791" fill="none" xmlns="http://www.w3.org/2000/svg">
<text>
  <tspan font-weight="bold" fill="red">This is bold and red</tspan>
</text>
<path fill-rule="evenodd" clip-rule="evenodd" d="M208 617.871C133.145 607.5 78.6498 548.574 53.7877 468.031C43.574 434.696 42.0957 397.724 45.6571 359.069C52.2422 290.042 83.891 230.106 130.054 186.4C130.255 186.198 130.323 186.13 130.39 186.332C130.524 186.534 130.927 186.737 131.129 186.871C131.398 187.006 131.465 186.871 131.263 187.208C82.2783 232.126 50.8311 303.578 47.4041 375.77C42.0957 478.873 92.0888 570.191 167.011 601.641C179.577 606.961 192.747 611.002 206.455 613.089C207.395 614.301 207.933 615.985 208 617.871Z" fill="black"/>
<path fill-rule="evenodd" clip-rule="evenodd" d="M21.3997 445.673C27.5144 452.946 37.2577 460.084 47.7401 457.323C48.2777 458.131 51.0327 462.172 51.4358 462.778C51.9062 463.519 52.7797 464.26 53.4517 463.654C53.8548 463.384 54.1908 462.778 53.7877 461.835C52.2422 459.95 50.7639 457.997 49.0168 455.976C45.9258 439.612 41.4238 428.702 32.0165 417.658C21.1309 404.997 9.97656 399.34 3.05548 396.983C2.04756 396.714 1.10684 396.445 0.0989114 396.108C-0.573038 402.438 2.31634 411.664 4.60097 416.917C9.03583 427.692 13.8739 437.12 21.3997 445.673Z" fill="black"/>
<path fill-rule="evenodd" clip-rule="evenodd" d="M111.441 215.156C110.567 215.492 105.461 216.839 104.856 215.829C104.654 215.56 104.923 214.549 105.393 214.482C107.275 214.28 109.358 214.145 111.172 213.741C114.465 203.37 123.603 198.858 132.003 197.107C142.082 195.087 153.169 198.185 165.062 199.869C165.667 200.003 166.339 200.071 166.877 200.071C166.675 200.475 166.406 200.744 166.138 201.148C161.165 207.95 153.371 214.213 145.778 217.311C140.671 219.466 134.556 220.678 128.576 220.476C122.259 220.206 116.951 218.792 111.441 215.156Z" fill="black"/>
<path fill-rule="evenodd" clip-rule="evenodd" d="M131.129 186.804C131.532 186.939 131.532 186.804 132.271 186.4C133.682 185.053 134.892 184.245 136.303 182.965C144.366 183.033 152.027 180.608 159.284 175.759C162.509 173.604 165.734 170.978 168.422 167.813C174.873 160.877 180.047 150.708 182.399 141.414C182.533 140.875 182.6 140.539 182.668 140C182.063 140.269 181.525 140.539 180.92 140.808C167.885 146.061 155.252 148.485 144.77 158.654C137.647 165.456 133.951 173.672 135.429 181.618C133.817 182.898 132.137 184.11 130.591 185.592C129.919 186.198 130.726 186.804 131.129 186.804Z" fill="black"/>
<path fill-rule="evenodd" clip-rule="evenodd" d="M83.6894 258.592C82.8159 259.064 77.9106 261.623 77.1715 260.747C76.8355 260.41 76.9699 259.333 77.4403 259.131C79.2545 258.457 81.4048 257.986 83.219 257.178C83.891 249.838 87.9899 242.968 96.1205 238.254C108.552 231.655 122.662 232.732 135.967 231.587C136.639 231.52 137.244 231.52 137.849 231.453C137.647 231.857 137.445 232.193 137.311 232.598C132.876 240.275 125.686 248.558 118.362 253.272C113.457 256.572 107.409 259.064 101.362 260.276C94.9781 261.555 89.5354 260.815 83.6894 258.592Z" fill="black"/>
<path fill-rule="evenodd" clip-rule="evenodd" d="M18.5775 371.864C22.6092 380.956 29.8663 390.922 40.4831 391.596C40.819 392.539 42.7677 396.916 43.0365 397.59C43.238 398.532 43.91 399.542 44.7835 399.138C45.1867 399.004 45.5899 398.465 45.5227 397.522C44.5148 395.098 43.238 393.212 42.0285 390.72C42.9693 374.019 42.0285 361.83 35.645 348.092C28.388 332.266 18.4431 323.175 12.3284 318.73C11.5892 318.057 10.7157 317.518 9.84218 316.979C8.43108 323.444 8.90144 333.478 9.77498 339.27C11.3205 350.988 13.8067 361.291 18.5775 371.864Z" fill="black"/>
<path fill-rule="evenodd" clip-rule="evenodd" d="M30.471 304.79C32.2181 314.487 36.5858 324.252 46.2618 328.495C46.3962 329.505 47.4713 334.219 47.6057 334.96C47.6057 335.97 47.9417 337.115 48.8824 336.98C49.1512 336.913 49.8231 336.644 49.8903 335.633C49.4872 333.074 48.748 330.178 48.2777 327.417C51.503 315.632 53.2501 304.857 52.7125 293.342C51.839 277.112 45.7914 263.037 36.2498 251.723C35.5106 250.915 34.9731 250.04 34.3011 249.299C31.6133 254.888 29.8663 264.451 29.3959 270.175C28.388 281.758 28.4552 293.409 30.471 304.79Z" fill="black"/>
<path fill-rule="evenodd" clip-rule="evenodd" d="M54.8628 243.575C54.594 253.541 57.013 264.72 65.3452 271.185C65.278 272.196 65.0764 277.044 65.0764 277.718C64.942 278.661 65.0092 279.805 65.9499 280.007C66.2859 280.007 66.8907 279.94 67.0923 278.997C67.2938 276.506 67.361 272.667 67.4954 269.906C74.6181 257.784 78.4482 244.585 78.5826 229.5C78.8514 212.058 74.5509 200.946 71.1239 193.942C70.6536 192.999 70.1832 192.057 69.7129 191.114C65.9499 195.693 62.3886 204.448 60.7759 209.835C57.5506 220.745 55.1988 232.126 54.8628 243.575Z" fill="black"/>
<path fill-rule="evenodd" clip-rule="evenodd" d="M91.82 187.679C89.6698 197.04 90.2745 210.778 97.2628 216.435C96.994 217.647 96.3892 221.823 96.322 222.765C96.0533 223.776 95.8517 224.718 96.658 225.122C96.994 225.257 97.2628 225.257 97.6659 224.382C98.1363 221.755 98.2707 219.6 98.6739 216.906C108.619 206.266 114.263 195.761 117.421 181.416C120.579 166.399 120.109 154.479 118.765 146.061C118.631 145.051 118.362 144.041 118.093 142.963C109.358 149.967 103.176 159.193 97.9347 169.699C95.1126 175.423 92.8951 181.282 91.82 187.679Z" fill="black"/>
<path fill-rule="evenodd" clip-rule="evenodd" d="M61.3807 315.902C60.5743 316.642 56.1395 320.885 55.0644 320.346C54.7956 320.077 54.594 318.663 55.0644 318.393C56.7442 317.046 58.8945 316.036 60.5743 314.757C60.0368 306.676 61.851 298.46 69.1753 290.782C80.464 279.805 95.4485 276.102 109.089 270.445C109.694 270.175 110.299 269.839 111.038 269.569C110.903 270.041 110.836 270.579 110.635 271.051C107.947 280.479 102.571 291.456 96.0533 298.864C91.82 303.847 86.1084 308.629 80.1281 311.794C73.8789 315.161 67.9658 316.238 61.3807 315.902Z" fill="black"/>
<path fill-rule="evenodd" clip-rule="evenodd" d="M51.9734 381.696C51.3686 382.774 47.8073 388.565 46.665 388.296C46.1946 388.296 45.7243 386.882 46.0602 386.343C47.5385 384.39 49.42 382.841 50.6967 380.821C48.4121 373.413 49.4872 362.705 54.9972 352.469C63.7325 337.519 76.4995 330.246 88.8634 319.808C89.401 319.269 89.9385 318.797 90.5433 318.191C90.6105 318.663 90.6777 319.201 90.6105 319.808C90.3417 330.044 87.6539 342.906 82.8831 352.604C79.7921 359.136 75.2228 365.669 69.9816 371.123C64.5388 376.578 58.7601 379.743 51.9734 381.696Z" fill="black"/>
<path fill-rule="evenodd" clip-rule="evenodd" d="M58.1553 446.212C57.685 447.491 55.2659 454.36 54.0564 454.63C53.6533 454.562 52.8469 453.552 53.1829 452.811C54.1908 450.522 55.3331 447.895 56.2739 445.538C52.1078 441.565 50.6967 430.521 54.0564 418.937C59.6336 401.967 72.0647 389.239 82.0767 375.164C82.5471 374.491 83.0175 373.817 83.4878 373.144C83.6222 373.615 83.6894 374.154 83.8238 374.693C85.5709 384.592 85.4365 397.724 82.7487 408.432C80.9344 415.57 77.7763 423.449 73.6774 430.184C69.4441 437.322 64.4045 442.238 58.1553 446.212Z" fill="black"/>
<path fill-rule="evenodd" clip-rule="evenodd" d="M43.1708 521.704C50.7639 526.687 64.3373 530.459 73.6774 524.33C74.4165 524.869 78.3138 527.226 78.7842 527.63C79.4561 528.304 80.3968 528.775 81.0016 527.832C81.3376 527.428 81.5392 526.755 80.8672 526.014C78.9185 524.667 76.7683 523.792 74.6853 522.445C67.5626 507.629 59.9024 497.595 48.1433 490.187C34.7043 481.567 23.4827 481.432 16.2929 481.432C15.285 481.432 14.277 481.5 13.2691 481.5C15.0162 496.113 33.0916 515.441 43.1708 521.704Z" fill="black"/>
<path fill-rule="evenodd" clip-rule="evenodd" d="M80.4641 510.255C80.3969 511.198 79.9265 515.374 79.2545 517.933C79.0529 518.673 78.9858 519.751 77.9778 519.347C77.5747 519.28 77.1715 518.404 77.1715 518C77.6419 515.508 78.045 512.68 78.2466 510.188C73.6101 507.225 69.9816 497.527 69.2425 485.608C70.0488 467.627 78.1122 451.33 84.5629 434.359C84.7645 433.618 85.0333 432.81 85.3021 432.002C85.5709 432.406 85.7052 432.81 85.974 433.214C90.2745 442.104 93.5671 454.562 93.8358 465.809C94.1046 473.149 93.0295 481.702 90.8793 489.648C88.5946 497.797 85.2349 504.195 80.4641 510.255Z" fill="black"/>
<path fill-rule="evenodd" clip-rule="evenodd" d="M84.2942 583.189C93.0295 584.94 104.856 584.535 112.247 575.107C114.129 575.377 117.152 575.848 119.101 575.983C119.639 576.05 120.042 575.646 120.243 574.973C120.378 574.501 120.243 573.895 119.37 573.424C117.152 572.952 114.935 572.952 112.583 572.548C102.773 561.033 93.4999 554.568 80.1281 552.143C64.6732 549.315 51.5702 553.288 44.582 556.184C43.6412 556.521 42.6333 556.925 41.7598 557.396C44.246 562.986 51.503 568.71 56.0723 571.471C64.8076 577.262 73.7445 581.438 84.2942 583.189Z" fill="black"/>
<path fill-rule="evenodd" clip-rule="evenodd" d="M115.54 558.878C115.674 559.888 115.809 563.928 115.809 566.622C115.741 567.363 115.943 568.373 114.935 568.44C114.465 568.44 113.927 567.834 113.927 567.363C113.726 564.871 113.86 562.177 113.457 559.618C108.283 558.002 101.429 550.123 98.2707 539.281C94.6422 521.906 98.6067 503.992 100.488 485.608C100.623 484.799 100.555 483.991 100.623 483.116C100.959 483.453 101.362 483.789 101.698 484.126C108.014 491.063 114.33 501.77 117.354 512.276C119.437 519.145 120.512 527.63 120.512 535.779C120.378 544.331 118.631 551.537 115.54 558.878Z" fill="black"/>
<path fill-rule="evenodd" clip-rule="evenodd" d="M164.458 594.233C164.928 594.974 165.533 598.341 166.205 600.9C166.406 601.506 166.81 602.449 165.869 602.786C165.398 602.988 164.794 602.584 164.659 602.18C163.786 600.025 163.786 597.735 162.711 595.58C157.671 596.792 148.936 590.394 143.224 582.044C135.295 567.632 134.422 550.729 131.331 533.556C131.263 532.748 130.995 532.007 130.86 531.199C131.263 531.267 131.667 531.536 132.07 531.671C139.663 535.509 148.331 542.311 153.908 550.662C157.738 556.049 161.3 563.524 163.315 570.999C165.398 578.879 165.466 586.354 164.458 594.233Z" fill="black"/>
<path fill-rule="evenodd" clip-rule="evenodd" d="M136.975 626.289C145.912 625.076 157.469 620.968 162.576 609.52C164.39 608.981 167.549 608.645 169.43 608.106C169.968 608.038 170.236 607.432 170.304 606.692C170.304 606.288 170.035 605.681 169.094 605.547C166.877 605.883 164.659 606.557 162.173 606.826C149.204 599.149 138.722 595.647 125.081 597.6C109.425 599.823 98.0019 607.702 91.8872 612.753C91.0137 613.493 90.1401 614.167 89.3338 614.908C93.0967 619.554 101.563 622.652 106.603 623.999C116.481 626.76 126.157 627.837 136.975 626.289Z" fill="black"/>
<g>
  <text x="0" y="50" font-family="Verdana" font-size="35" fill="blue">Hello</text>
  <path d="M607 790V668.5L350.5 647L96 668.5V790L350.5 760.5L607 790Z" fill="#D9D9D9" stroke="black"/>
</g>

<path d="M348.053 1.98739C349.143 -0.662465 352.857 -0.662465 353.947 1.98739L367.135 34.0425C367.595 35.1597 368.634 35.923 369.827 36.0197L404.059 38.794C406.889 39.0234 408.036 42.5935 405.88 44.4606L379.799 67.0461C378.89 67.8334 378.493 69.0685 378.771 70.2449L386.739 104.015C387.398 106.806 384.394 109.013 381.971 107.517L352.663 89.4206C351.642 88.7902 350.358 88.7902 349.337 89.4206L320.029 107.517C317.606 109.013 314.602 106.806 315.261 104.015L323.229 70.2449C323.507 69.0685 323.11 67.8334 322.201 67.0461L296.12 44.4606C293.964 42.5935 295.111 39.0234 297.941 38.794L332.173 36.0197C333.366 35.923 334.405 35.1597 334.865 34.0425L348.053 1.98739Z" fill="#FDB022"/>
<path d="M251.211 76.1961C251.873 74.6013 254.127 74.6013 254.789 76.1961L262.797 95.4886C263.076 96.1609 263.706 96.6203 264.431 96.6785L285.214 98.3482C286.932 98.4863 287.629 100.635 286.32 101.759L270.485 115.352C269.933 115.826 269.692 116.569 269.861 117.277L274.699 137.601C275.099 139.282 273.275 140.61 271.804 139.709L254.01 128.818C253.39 128.439 252.61 128.439 251.99 128.818L234.196 139.709C232.725 140.61 230.901 139.282 231.301 137.601L236.139 117.277C236.308 116.569 236.067 115.826 235.515 115.352L219.68 101.759C218.371 100.635 219.068 98.4863 220.786 98.3482L241.569 96.6785C242.294 96.6203 242.924 96.1609 243.203 95.4886L251.211 76.1961Z" fill="#FDB022"/>
<path d="M439.211 76.1961C439.873 74.6013 442.127 74.6013 442.789 76.1961L450.797 95.4886C451.076 96.1609 451.706 96.6203 452.431 96.6785L473.214 98.3482C474.932 98.4863 475.629 100.635 474.32 101.759L458.485 115.352C457.933 115.826 457.692 116.569 457.861 117.277L462.699 137.601C463.099 139.282 461.275 140.61 459.804 139.709L442.01 128.818C441.39 128.439 440.61 128.439 439.99 128.818L422.196 139.709C420.725 140.61 418.901 139.282 419.301 137.601L424.139 117.277C424.308 116.569 424.067 115.826 423.515 115.352L407.68 101.759C406.371 100.635 407.068 98.4863 408.786 98.3482L429.569 96.6785C430.294 96.6203 430.924 96.1609 431.203 95.4886L439.211 76.1961Z" fill="#FDB022"/>
<!-- <path id="lineAC" d="M 200 300 q 150 -250 300 0" stroke="" stroke-width="2" fill="none"/>
<text style="fill:red;font-size:25px;">
  <textPath href="#lineAC" startOffset="20" textLength="20%" >Datascience</textPath>
</text> -->

  <path id="lineAC" d="M200 300 q 150 -200 300 0" stroke="blue" stroke-width="2" fill="none"/>
  <text fill="red"  font-family="Verdana" font-size="30">
    <textPath href="#lineAC" textLength="50%" startOffset="20">SCOOTDIO COURSE</textPath>
  </text>

<path fill-rule="evenodd" clip-rule="evenodd" d="M475 617.871C549.855 607.5 604.35 548.574 629.212 468.031C639.426 434.696 640.904 397.724 637.343 359.069C630.758 290.042 599.109 230.106 552.946 186.4C552.745 186.198 552.677 186.13 552.61 186.332C552.476 186.534 552.073 186.737 551.871 186.871C551.602 187.006 551.535 186.871 551.737 187.208C600.722 232.126 632.169 303.578 635.596 375.77C640.904 478.873 590.911 570.191 515.989 601.641C503.423 606.961 490.253 611.002 476.545 613.089C475.605 614.301 475.067 615.985 475 617.871Z" fill="black"/>
<path fill-rule="evenodd" clip-rule="evenodd" d="M661.6 445.673C655.486 452.946 645.742 460.084 635.26 457.323C634.722 458.131 631.967 462.172 631.564 462.778C631.094 463.519 630.22 464.26 629.548 463.654C629.145 463.384 628.809 462.778 629.212 461.835C630.758 459.95 632.236 457.997 633.983 455.976C637.074 439.612 641.576 428.702 650.984 417.658C661.869 404.997 673.023 399.34 679.944 396.983C680.952 396.714 681.893 396.445 682.901 396.108C683.573 402.438 680.684 411.664 678.399 416.917C673.964 427.692 669.126 437.12 661.6 445.673Z" fill="black"/>
<path fill-rule="evenodd" clip-rule="evenodd" d="M571.559 215.156C572.433 215.492 577.539 216.839 578.144 215.829C578.346 215.56 578.077 214.549 577.607 214.482C575.725 214.28 573.642 214.145 571.828 213.741C568.535 203.37 559.397 198.858 550.997 197.107C540.918 195.087 529.831 198.185 517.938 199.869C517.333 200.003 516.661 200.071 516.123 200.071C516.325 200.475 516.594 200.744 516.862 201.148C521.835 207.95 529.629 214.213 537.222 217.311C542.329 219.466 548.444 220.678 554.424 220.476C560.741 220.206 566.049 218.792 571.559 215.156Z" fill="black"/>
<path fill-rule="evenodd" clip-rule="evenodd" d="M551.871 186.804C551.468 186.939 551.468 186.804 550.729 186.4C549.318 185.053 548.108 184.245 546.697 182.965C538.634 183.033 530.973 180.608 523.716 175.759C520.491 173.604 517.266 170.978 514.578 167.813C508.127 160.877 502.953 150.708 500.601 141.414C500.467 140.875 500.4 140.539 500.332 140C500.937 140.269 501.475 140.539 502.08 140.808C515.115 146.061 527.748 148.485 538.23 158.654C545.353 165.456 549.049 173.672 547.571 181.618C549.183 182.898 550.863 184.11 552.409 185.592C553.081 186.198 552.274 186.804 551.871 186.804Z" fill="black"/>
<path fill-rule="evenodd" clip-rule="evenodd" d="M599.311 258.592C600.184 259.064 605.089 261.623 605.828 260.747C606.164 260.41 606.03 259.333 605.56 259.131C603.745 258.457 601.595 257.986 599.781 257.178C599.109 249.838 595.01 242.968 586.88 238.254C574.448 231.655 560.338 232.732 547.033 231.587C546.361 231.52 545.756 231.52 545.152 231.453C545.353 231.857 545.555 232.193 545.689 232.598C550.124 240.275 557.314 248.558 564.638 253.272C569.543 256.572 575.591 259.064 581.638 260.276C588.022 261.555 593.465 260.815 599.311 258.592Z" fill="black"/>
<path fill-rule="evenodd" clip-rule="evenodd" d="M664.423 371.864C660.391 380.956 653.134 390.922 642.517 391.596C642.181 392.539 640.232 396.916 639.964 397.59C639.762 398.532 639.09 399.542 638.216 399.138C637.813 399.004 637.41 398.465 637.477 397.522C638.485 395.098 639.762 393.212 640.971 390.72C640.031 374.019 640.971 361.83 647.355 348.092C654.612 332.266 664.557 323.175 670.672 318.73C671.411 318.057 672.284 317.518 673.158 316.979C674.569 323.444 674.099 333.478 673.225 339.27C671.68 350.988 669.193 361.291 664.423 371.864Z" fill="black"/>
<path fill-rule="evenodd" clip-rule="evenodd" d="M652.529 304.79C650.782 314.487 646.414 324.252 636.738 328.495C636.604 329.505 635.529 334.219 635.394 334.96C635.394 335.97 635.058 337.115 634.118 336.98C633.849 336.913 633.177 336.643 633.11 335.633C633.513 333.074 634.252 330.179 634.722 327.417C631.497 315.632 629.75 304.857 630.287 293.342C631.161 277.112 637.209 263.037 646.75 251.723C647.489 250.915 648.027 250.04 648.699 249.299C651.387 254.888 653.134 264.451 653.604 270.175C654.612 281.758 654.545 293.409 652.529 304.79Z" fill="black"/>
<path fill-rule="evenodd" clip-rule="evenodd" d="M628.137 243.575C628.406 253.541 625.987 264.72 617.655 271.185C617.722 272.196 617.924 277.044 617.924 277.718C618.058 278.661 617.991 279.805 617.05 280.007C616.714 280.007 616.109 279.94 615.908 278.997C615.706 276.506 615.639 272.667 615.505 269.906C608.382 257.784 604.552 244.585 604.417 229.5C604.149 212.058 608.449 200.946 611.876 193.942C612.346 192.999 612.817 192.057 613.287 191.114C617.05 195.693 620.611 204.448 622.224 209.835C625.449 220.745 627.801 232.126 628.137 243.575Z" fill="black"/>
<path fill-rule="evenodd" clip-rule="evenodd" d="M591.18 187.679C593.33 197.04 592.725 210.778 585.737 216.435C586.006 217.647 586.611 221.823 586.678 222.765C586.947 223.776 587.148 224.718 586.342 225.122C586.006 225.257 585.737 225.257 585.334 224.382C584.864 221.755 584.729 219.6 584.326 216.906C574.381 206.266 568.737 195.761 565.579 181.416C562.421 166.399 562.891 154.479 564.235 146.061C564.369 145.051 564.638 144.041 564.907 142.963C573.642 149.967 579.824 159.193 585.065 169.699C587.887 175.423 590.105 181.282 591.18 187.679Z" fill="black"/>
<path fill-rule="evenodd" clip-rule="evenodd" d="M621.619 315.902C622.426 316.642 626.861 320.885 627.936 320.346C628.204 320.077 628.406 318.663 627.936 318.393C626.256 317.046 624.106 316.036 622.426 314.757C622.963 306.676 621.149 298.46 613.825 290.782C602.536 279.805 587.552 276.102 573.911 270.445C573.306 270.175 572.701 269.839 571.962 269.569C572.097 270.041 572.164 270.579 572.365 271.051C575.053 280.479 580.429 291.456 586.947 298.864C591.18 303.847 596.892 308.629 602.872 311.794C609.121 315.161 615.034 316.238 621.619 315.902Z" fill="black"/>
<path fill-rule="evenodd" clip-rule="evenodd" d="M631.027 381.696C631.631 382.774 635.193 388.565 636.335 388.296C636.805 388.296 637.276 386.882 636.94 386.343C635.461 384.39 633.58 382.841 632.303 380.821C634.588 373.413 633.513 362.705 628.003 352.469C619.268 337.519 606.5 330.246 594.137 319.808C593.599 319.269 593.061 318.797 592.457 318.191C592.39 318.663 592.322 319.201 592.39 319.808C592.658 330.044 595.346 342.906 600.117 352.604C603.208 359.136 607.777 365.669 613.018 371.123C618.461 376.578 624.24 379.743 631.027 381.696Z" fill="black"/>
<path fill-rule="evenodd" clip-rule="evenodd" d="M624.845 446.212C625.315 447.491 627.734 454.36 628.944 454.63C629.347 454.562 630.153 453.552 629.817 452.811C628.809 450.522 627.667 447.895 626.726 445.538C630.892 441.565 632.303 430.521 628.944 418.937C623.366 401.967 610.935 389.239 600.923 375.164C600.453 374.491 599.983 373.817 599.512 373.144C599.378 373.615 599.311 374.154 599.176 374.693C597.429 384.592 597.564 397.724 600.251 408.432C602.066 415.57 605.224 423.449 609.323 430.184C613.556 437.322 618.596 442.238 624.845 446.212Z" fill="black"/>
<path fill-rule="evenodd" clip-rule="evenodd" d="M639.829 521.704C632.236 526.687 618.663 530.459 609.323 524.33C608.583 524.869 604.686 527.226 604.216 527.63C603.544 528.304 602.603 528.775 601.998 527.832C601.662 527.428 601.461 526.755 602.133 526.014C604.081 524.667 606.232 523.792 608.315 522.445C615.437 507.629 623.098 497.595 634.857 490.187C648.296 481.567 659.517 481.432 666.707 481.432C667.715 481.432 668.723 481.5 669.731 481.5C667.984 496.113 649.908 515.441 639.829 521.704Z" fill="black"/>
<path fill-rule="evenodd" clip-rule="evenodd" d="M602.536 510.255C602.603 511.198 603.074 515.374 603.745 517.933C603.947 518.673 604.014 519.751 605.022 519.347C605.425 519.28 605.828 518.404 605.828 518C605.358 515.508 604.955 512.68 604.753 510.188C609.39 507.225 613.018 497.527 613.758 485.608C612.951 467.627 604.888 451.33 598.437 434.359C598.235 433.618 597.967 432.81 597.698 432.002C597.429 432.406 597.295 432.81 597.026 433.214C592.726 442.104 589.433 454.562 589.164 465.809C588.895 473.149 589.971 481.702 592.121 489.648C594.405 497.797 597.765 504.195 602.536 510.255Z" fill="black"/>
<path fill-rule="evenodd" clip-rule="evenodd" d="M598.706 583.189C589.971 584.94 578.144 584.535 570.753 575.107C568.871 575.377 565.848 575.848 563.899 575.983C563.361 576.05 562.958 575.646 562.757 574.973C562.622 574.501 562.757 573.895 563.63 573.424C565.848 572.952 568.065 572.952 570.417 572.548C580.227 561.033 589.5 554.568 602.872 552.143C618.327 549.315 631.43 553.288 638.418 556.184C639.359 556.521 640.367 556.925 641.24 557.396C638.754 562.986 631.497 568.71 626.928 571.471C618.192 577.262 609.255 581.438 598.706 583.189Z" fill="black"/>
<path fill-rule="evenodd" clip-rule="evenodd" d="M567.46 558.878C567.326 559.888 567.191 563.928 567.191 566.622C567.259 567.363 567.057 568.373 568.065 568.44C568.535 568.44 569.073 567.834 569.073 567.363C569.274 564.871 569.14 562.177 569.543 559.618C574.717 558.002 581.571 550.123 584.729 539.281C588.358 521.906 584.393 503.992 582.512 485.608C582.377 484.799 582.445 483.991 582.377 483.116C582.041 483.453 581.638 483.789 581.302 484.126C574.986 491.063 568.67 501.77 565.646 512.276C563.563 519.145 562.488 527.63 562.488 535.779C562.622 544.331 564.369 551.537 567.46 558.878Z" fill="black"/>
<path fill-rule="evenodd" clip-rule="evenodd" d="M518.542 594.233C518.072 594.974 517.467 598.341 516.795 600.9C516.594 601.506 516.191 602.449 517.131 602.786C517.602 602.988 518.206 602.584 518.341 602.18C519.214 600.025 519.214 597.735 520.289 595.58C525.329 596.792 534.064 590.394 539.776 582.044C547.705 567.632 548.578 550.729 551.669 533.556C551.737 532.748 552.005 532.007 552.14 531.199C551.737 531.267 551.333 531.536 550.93 531.671C543.337 535.509 534.669 542.311 529.092 550.662C525.262 556.049 521.7 563.524 519.685 570.999C517.602 578.879 517.534 586.354 518.542 594.233Z" fill="black"/>
<path fill-rule="evenodd" clip-rule="evenodd" d="M546.025 626.289C537.088 625.076 525.531 620.968 520.424 609.52C518.61 608.981 515.451 608.645 513.57 608.106C513.032 608.038 512.764 607.432 512.696 606.692C512.696 606.288 512.965 605.681 513.906 605.547C516.123 605.883 518.341 606.557 520.827 606.826C533.796 599.149 544.278 595.647 557.919 597.6C573.575 599.823 584.998 607.702 591.113 612.753C591.986 613.493 592.86 614.167 593.666 614.908C589.903 619.554 581.437 622.652 576.397 623.999C566.519 626.76 556.843 627.837 546.025 626.289Z" fill="black"/>
</svg>
