<svg width="19" height="18" viewBox="0 0 19 18" fill="none" xmlns="http://www.w3.org/2000/svg">
<path d="M14.2222 12.75L18 9M18 9L14.2222 5.25M18 9H4.77778M10.4444 12.75V13.6875C10.4444 14.4334 10.1459 15.1488 9.61458 15.6762C9.08323 16.2037 8.36256 16.5 7.61111 16.5H3.83333C3.08189 16.5 2.36122 16.2037 1.82986 15.6762C1.29851 15.1488 1 14.4334 1 13.6875V4.3125C1 3.56658 1.29851 2.85121 1.82986 2.32376C2.36122 1.79632 3.08189 1.5 3.83333 1.5H7.61111C8.36256 1.5 9.08323 1.79632 9.61458 2.32376C10.1459 2.85121 10.4444 3.56658 10.4444 4.3125V5.25" stroke="#292929" stroke-width="1.5" stroke-linecap="round" stroke-linejoin="round"/>
</svg>
