<svg width="92" height="92" viewBox="0 0 92 92" fill="none" xmlns="http://www.w3.org/2000/svg">
<g filter="url(#filter0_d_2028_4288)">
<path d="M43.4557 5.65081C44.8437 4.20481 47.1563 4.2048 48.5443 5.65081L52.575 9.84976C53.4393 10.7501 54.715 11.1266 55.9296 10.8399L61.5625 9.51028C63.5052 9.0517 65.441 10.2953 65.8315 12.2529L66.9886 18.0535C67.2306 19.2667 68.0906 20.2644 69.2548 20.6827L74.7648 22.6623C76.6291 23.332 77.5762 25.4054 76.862 27.2531L74.7129 32.8125C74.27 33.958 74.455 35.2514 75.2012 36.2269L78.812 40.9474C80.013 42.5174 79.6893 44.7677 78.0947 45.9356L73.3316 49.424C72.3381 50.1517 71.7961 51.3448 71.9017 52.5718L72.4118 58.4996C72.5823 60.4805 71.0826 62.2107 69.0976 62.3233L63.2955 62.6523C62.0542 62.7227 60.9416 63.4414 60.3672 64.5441L57.6568 69.747C56.7318 71.5227 54.5158 72.1731 52.7779 71.1791L47.751 68.304C46.6661 67.6836 45.3339 67.6836 44.249 68.304L39.2221 71.1791C37.4842 72.1731 35.2682 71.5227 34.3432 69.747L31.6328 64.5441C31.0583 63.4414 29.9458 62.7227 28.7045 62.6523L22.9024 62.3233C20.9174 62.2107 19.4177 60.4805 19.5881 58.4996L20.0983 52.5718C20.2039 51.3448 19.6619 50.1516 18.6684 49.424L13.9053 45.9356C12.3107 44.7677 11.987 42.5174 13.188 40.9474L16.7988 36.2269C17.545 35.2514 17.73 33.958 17.2871 32.8125L15.138 27.2531C14.4238 25.4054 15.3709 23.332 17.2352 22.6623L22.7452 20.6827C23.9094 20.2644 24.7694 19.2667 25.0114 18.0535L26.1685 12.2529C26.559 10.2953 28.4948 9.0517 30.4375 9.51028L36.0704 10.8399C37.285 11.1266 38.5607 10.7501 39.425 9.84976L43.4557 5.65081Z" fill="url(#paint0_linear_2028_4288)"/>
<path d="M43.4557 5.65081C44.8437 4.20481 47.1563 4.2048 48.5443 5.65081L52.575 9.84976C53.4393 10.7501 54.715 11.1266 55.9296 10.8399L61.5625 9.51028C63.5052 9.0517 65.441 10.2953 65.8315 12.2529L66.9886 18.0535C67.2306 19.2667 68.0906 20.2644 69.2548 20.6827L74.7648 22.6623C76.6291 23.332 77.5762 25.4054 76.862 27.2531L74.7129 32.8125C74.27 33.958 74.455 35.2514 75.2012 36.2269L78.812 40.9474C80.013 42.5174 79.6893 44.7677 78.0947 45.9356L73.3316 49.424C72.3381 50.1517 71.7961 51.3448 71.9017 52.5718L72.4118 58.4996C72.5823 60.4805 71.0826 62.2107 69.0976 62.3233L63.2955 62.6523C62.0542 62.7227 60.9416 63.4414 60.3672 64.5441L57.6568 69.747C56.7318 71.5227 54.5158 72.1731 52.7779 71.1791L47.751 68.304C46.6661 67.6836 45.3339 67.6836 44.249 68.304L39.2221 71.1791C37.4842 72.1731 35.2682 71.5227 34.3432 69.747L31.6328 64.5441C31.0583 63.4414 29.9458 62.7227 28.7045 62.6523L22.9024 62.3233C20.9174 62.2107 19.4177 60.4805 19.5881 58.4996L20.0983 52.5718C20.2039 51.3448 19.6619 50.1516 18.6684 49.424L13.9053 45.9356C12.3107 44.7677 11.987 42.5174 13.188 40.9474L16.7988 36.2269C17.545 35.2514 17.73 33.958 17.2871 32.8125L15.138 27.2531C14.4238 25.4054 15.3709 23.332 17.2352 22.6623L22.7452 20.6827C23.9094 20.2644 24.7694 19.2667 25.0114 18.0535L26.1685 12.2529C26.559 10.2953 28.4948 9.0517 30.4375 9.51028L36.0704 10.8399C37.285 11.1266 38.5607 10.7501 39.425 9.84976L43.4557 5.65081Z" fill="url(#paint1_linear_2028_4288)" fill-opacity="0.1"/>
<path d="M21.7333 38.4741C21.7333 25.072 32.5979 14.2075 45.9999 14.2075V14.2075C59.402 14.2075 70.2666 25.0721 70.2666 38.4741V38.9732C70.2666 52.3753 59.402 63.2398 45.9999 63.2398V63.2398C32.5979 63.2398 21.7333 52.3753 21.7333 38.9732V38.4741Z" fill="black" fill-opacity="0.04"/>
<path d="M68.9497 38.4741V38.9732C68.9497 51.648 58.6747 61.923 45.9999 61.923C33.3251 61.923 23.0502 51.648 23.0502 38.9732V38.4741C23.0502 25.7993 33.3251 15.5244 45.9999 15.5244C58.6747 15.5244 68.9497 25.7993 68.9497 38.4741Z" stroke="white" stroke-opacity="0.5" stroke-width="2.63371"/>
<path d="M42.0006 43.1538L37.3412 38.4464C37.0903 38.1924 36.7497 38.0496 36.3945 38.0496C36.0393 38.0496 35.6988 38.1924 35.4479 38.4464C34.9242 38.9755 34.9242 39.8301 35.4479 40.3592L41.0607 46.0297C41.5844 46.5588 42.4303 46.5588 42.954 46.0297L57.1606 31.677C57.6843 31.1479 57.6843 30.2933 57.1606 29.7642C56.9098 29.5102 56.5692 29.3674 56.214 29.3674C55.8588 29.3674 55.5182 29.5102 55.2673 29.7642L42.0006 43.1538Z" fill="white" stroke="#FDFDFD" stroke-width="0.526742"/>
</g>
<defs>
<filter id="filter0_d_2028_4288" x="-1" y="-1" width="94" height="94" filterUnits="userSpaceOnUse" color-interpolation-filters="sRGB">
<feFlood flood-opacity="0" result="BackgroundImageFix"/>
<feColorMatrix in="SourceAlpha" type="matrix" values="0 0 0 0 0 0 0 0 0 0 0 0 0 0 0 0 0 0 127 0" result="hardAlpha"/>
<feOffset dy="8"/>
<feGaussianBlur stdDeviation="6"/>
<feComposite in2="hardAlpha" operator="out"/>
<feColorMatrix type="matrix" values="0 0 0 0 0.819608 0 0 0 0 0.980392 0 0 0 0 0.87451 0 0 0 1 0"/>
<feBlend mode="normal" in2="BackgroundImageFix" result="effect1_dropShadow_2028_4288"/>
<feBlend mode="normal" in="SourceGraphic" in2="effect1_dropShadow_2028_4288" result="shape"/>
</filter>
<linearGradient id="paint0_linear_2028_4288" x1="23.291" y1="9.55543" x2="61.6856" y2="70.0738" gradientUnits="userSpaceOnUse">
<stop stop-color="#12B76A"/>
<stop offset="1" stop-color="#12B76A"/>
</linearGradient>
<linearGradient id="paint1_linear_2028_4288" x1="-1.02141" y1="-2.46851" x2="52.153" y2="92.4431" gradientUnits="userSpaceOnUse">
<stop stop-color="white"/>
<stop offset="1" stop-color="white" stop-opacity="0"/>
</linearGradient>
</defs>
</svg>
