<svg width="25" height="25" viewBox="0 0 25 25" fill="none" xmlns="http://www.w3.org/2000/svg">
<g clip-path="url(#clip0_933_3782)">
<path d="M23.4999 4.50001V10.5M23.4999 10.5H17.4999M23.4999 10.5L18.8699 6.14001C17.4905 4.75975 15.6999 3.8652 13.7678 3.59116C11.8358 3.31711 9.86705 3.67843 8.15823 4.62065C6.44942 5.56288 5.09313 7.03496 4.29374 8.81508C3.49436 10.5952 3.29519 12.5869 3.72625 14.4901C4.1573 16.3932 5.19524 18.1047 6.68363 19.3667C8.17203 20.6286 10.0303 21.3726 11.9783 21.4866C13.9263 21.6006 15.8586 21.0783 17.484 19.9985C19.1094 18.9187 20.3399 17.3399 20.9899 15.5" stroke="white" stroke-width="3" stroke-linecap="round" stroke-linejoin="round"/>
</g>
<defs>
<clipPath id="clip0_933_3782">
<rect width="24" height="24" fill="white" transform="translate(0.5 0.5)"/>
</clipPath>
</defs>
</svg>
