<svg width="29" height="29" viewBox="0 0 29 29" fill="none" xmlns="http://www.w3.org/2000/svg">
<path d="M10.3796 16.3246L18.6325 21.1338M18.6204 7.86627L10.3796 12.6754M25.375 6.04169C25.375 8.04372 23.752 9.66669 21.75 9.66669C19.748 9.66669 18.125 8.04372 18.125 6.04169C18.125 4.03965 19.748 2.41669 21.75 2.41669C23.752 2.41669 25.375 4.03965 25.375 6.04169ZM10.875 14.5C10.875 16.5021 9.25203 18.125 7.25 18.125C5.24797 18.125 3.625 16.5021 3.625 14.5C3.625 12.498 5.24797 10.875 7.25 10.875C9.25203 10.875 10.875 12.498 10.875 14.5ZM25.375 22.9584C25.375 24.9604 23.752 26.5834 21.75 26.5834C19.748 26.5834 18.125 24.9604 18.125 22.9584C18.125 20.9563 19.748 19.3334 21.75 19.3334C23.752 19.3334 25.375 20.9563 25.375 22.9584Z" stroke="#101828" stroke-width="2" stroke-linecap="round" stroke-linejoin="round"/>
</svg>
