<svg width="70" height="70" viewBox="0 0 70 70" fill="none" xmlns="http://www.w3.org/2000/svg">
<path d="M15.9634 41.1216L11.0425 46.0423M10.5283 27.9982H3.56909M11.0425 9.95722L15.9634 14.8779M29.0873 2.48242L29.0873 9.44133M47.129 9.95722L42.2081 14.8779M63.6535 56.3411L58.2225 61.7721C57.6226 62.372 56.65 62.372 56.0501 61.7721L47.4879 53.2099C46.8405 52.5625 45.7742 52.6216 45.2022 53.3365L39.4438 60.5346C38.6643 61.5088 37.11 61.1966 36.7672 59.997L27.4824 27.5C27.1513 26.3412 28.2226 25.2699 29.3814 25.601L61.8784 34.8858C63.0781 35.2286 63.3903 36.7829 62.416 37.5624L55.2179 43.3208C54.503 43.8927 54.4439 44.9591 55.0913 45.6065L63.6535 54.1687C64.2534 54.7686 64.2534 55.7412 63.6535 56.3411Z" stroke="white" stroke-width="4" stroke-linecap="round" stroke-linejoin="round"/>
</svg>
