<svg width="84" height="84" viewBox="0 0 84 84" fill="none" xmlns="http://www.w3.org/2000/svg">
<path d="M17.5 59.5H14C12.1435 59.5 10.363 58.7625 9.05025 57.4497C7.7375 56.137 7 54.3565 7 52.5V17.5C7 15.6435 7.7375 13.863 9.05025 12.5503C10.363 11.2375 12.1435 10.5 14 10.5H70C71.8565 10.5 73.637 11.2375 74.9497 12.5503C76.2625 13.863 77 15.6435 77 17.5V52.5C77 54.3565 76.2625 56.137 74.9497 57.4497C73.637 58.7625 71.8565 59.5 70 59.5H66.5M42 52.5L59.5 73.5H24.5L42 52.5Z" stroke="white" stroke-width="6" stroke-linecap="round" stroke-linejoin="round"/>
</svg>
